<svg width="47" height="47" viewBox="0 0 47 47" fill="none" xmlns="http://www.w3.org/2000/svg">
<g clip-path="url(#clip0_1449_2507)">
<path d="M7.74434 21.2568C3.46721 21.2568 0 24.7241 0 29.0013C0 33.2784 3.4673 36.7457 7.74434 36.7457C12.0216 36.7457 15.4889 33.2784 15.4889 29.0013C15.4889 24.7241 12.0216 21.2568 7.74434 21.2568ZM7.74434 33.3038C5.37198 33.3038 3.44188 31.3737 3.44188 29.0013C3.44188 26.6288 5.37198 24.6987 7.74434 24.6987C10.1168 24.6987 12.0469 26.6288 12.0469 29.0013C12.0469 31.3737 10.1168 33.3038 7.74434 33.3038Z" fill="white"/>
<path d="M39.2554 21.2568C38.4061 21.2566 37.5625 21.3964 36.7586 21.6705L34.6285 18.3524C35.087 18.0148 35.5564 17.7107 36.024 17.4651V13.6556L32.6031 15.1975L29.4301 10.2551L23.2298 10.2549L22.0905 11.2033L27.2916 12.8971L29.6289 16.5381L23.4582 19.4281L17.4248 15.4484L7.74438 13.9067V16.3807L14.8569 21.8304L19.2604 30.974H27.8002L30.006 22.9607C30.006 22.9607 30.8936 21.8125 32.179 20.5103L33.9873 23.3268C32.4646 24.7409 31.511 26.7592 31.511 29.0012C31.511 33.2784 34.9783 36.7457 39.2554 36.7457C43.5327 36.7457 47.0001 33.2784 47.0001 29.0012C47.0001 24.7241 43.5327 21.2568 39.2554 21.2568ZM39.2554 33.3038C36.8832 33.3038 34.953 31.3737 34.953 29.0012C34.953 27.9832 35.309 27.0473 35.9023 26.3098L38.1896 29.8726L40.905 28.1295L38.7244 24.7326C38.9006 24.7103 39.0779 24.699 39.2554 24.6987C41.6279 24.6987 43.5581 26.6288 43.5581 29.0012C43.5581 31.3737 41.6279 33.3038 39.2554 33.3038Z" fill="white"/>
</g>
<defs>
<clipPath id="clip0_1449_2507">
<rect width="47" height="47" fill="white"/>
</clipPath>
</defs>
</svg>
