<svg width="60" height="36" viewBox="0 0 60 36" fill="none" xmlns="http://www.w3.org/2000/svg">
<g clip-path="url(#clip0_309_1025)">
<path fill-rule="evenodd" clip-rule="evenodd" d="M25.2456 17.8802C26.0242 8.94908 26.9942 2.2405 28.3367 0.0576172C26.7175 6.86369 25.9271 12.4481 26.3495 19.0226C35.2799 14.9615 39.3764 13.1579 39.3764 13.1579C39.6708 9.29944 39.4647 7.40751 39.634 7.40751C39.9784 11.0467 40.2875 13.0102 40.1859 13.0437C42.5602 13.1579 45.9958 13.717 51.4464 14.7955C51.5936 12.8335 51.5612 11.7489 51.5936 11.7108C51.7315 12.7592 51.8174 13.8142 51.8512 14.8717C55.9212 15.6897 57.5536 16.0507 57.5536 16.0507L40.3317 14.0704C33.4017 17.5283 27.218 20.3555 24.7289 21.6229C19.7772 24.1485 3.12201 24.0145 2.71722 20.9252C10.3714 22.1301 17.1012 22.6663 22.125 21.1522C24.5037 20.4362 25.0351 20.2382 25.2411 17.8802" fill="#F2F2F2"/>
<path fill-rule="evenodd" clip-rule="evenodd" d="M40.2934 15.8984L33.855 21.8774C39.7061 17.8224 39.865 17.5832 45.4099 17.67C53.4571 17.7858 57.3328 17.7325 57.3328 17.7325C52.9625 17.0257 47.1115 16.3615 40.2949 15.9045" fill="#F2F2F2"/>
<path fill-rule="evenodd" clip-rule="evenodd" d="M16.5949 25.838C19.2149 25.9553 21.9881 24.9134 24.0283 23.3246C24.5169 26.5372 25.4237 28.5175 27.3402 28.3514L30.2105 27.8944C30.6447 24.8159 32.2359 23.1433 34.5513 22.9148C36.2014 22.7518 37.8691 24.0999 38.3784 26.5996L48.1669 25.0763C48.3848 21.3016 52.3105 20.7182 52.8772 24.467L57.4403 23.8577L56.9987 24.3909L26.3083 34.9777L3.41935 33.3783L6.80486 30.8649C3.78146 28.8653 2.40763 25.8187 2.68337 21.7251C3.85211 23.8486 5.39767 25.2195 6.87846 25.2287C14.7785 25.7877 16.5934 25.8974 16.5934 25.838" fill="#F2F2F2"/>
<path fill-rule="evenodd" clip-rule="evenodd" d="M26.4643 31.3326C28.2793 31.1528 29.2714 30.6593 31.1128 30.2343L60 23.5698C40.5701 30.577 30.658 34.0608 27.3078 35.4272C24.9526 36.3868 23.0052 35.9116 20.0554 35.6435L5.18865 34.2131C1.99449 33.9176 -0.83167 34.2481 2.39928 32.6487L5.74063 31.002C4.05965 30.3455 2.65835 29.724 2.48613 27.2151C2.37505 25.6561 2.414 24.0896 2.60241 22.5386C3.69166 24.2203 4.12147 25.8792 5.96584 26.1701C10.3405 26.8556 13.4022 27.1481 16.3387 27.2273C18.5069 27.2867 18.9397 27.1328 21.0269 25.5821L24.1916 23.2317C24.1916 24.1335 24.1534 26.4534 24.1578 28.4642C24.1578 30.8817 24.2373 31.5519 26.4643 31.3326Z" fill="#F2F2F2"/>
<path fill-rule="evenodd" clip-rule="evenodd" d="M2.6142 20.5871C3.4856 22.182 18.2493 23.6337 24.096 20.3525C24.0077 14.0781 25.7343 3.5963 27.2519 0.0180873C23.0641 -0.129672 10.3317 0.609125 7.63063 2.92758C3.59011 6.39764 2.63333 16.066 2.6142 20.5871Z" fill="#F2F2F2"/>
<path fill-rule="evenodd" clip-rule="evenodd" d="M26.1493 19.3652C30.0265 17.554 33.8801 15.6667 37.7557 13.8722C38.12 13.6981 38.4935 13.5455 38.8744 13.4153L39.4485 7.40891H39.6428L40.1521 13.1563C41.4356 13.0588 43.0077 13.4031 46.5212 13.9621L51.1932 14.8441L51.495 11.697H51.6231L51.9174 14.9797L58.5839 16.2379C58.5839 13.8707 58.7105 13.269 56.2553 12.2423C46.4388 8.12942 35.7951 2.92281 28.9254 0.311881C28.3587 0.0757703 28.3367 0.311881 28.2498 0.520572C26.7234 5.46823 26.0537 11.7503 26.1493 19.3652Z" fill="#F2F2F2"/>
<path fill-rule="evenodd" clip-rule="evenodd" d="M41.047 16.4712C43.6421 16.4621 51.2035 17.3288 58.4382 17.7584C58.4367 17.2131 42.9547 15.4049 41.5092 15.2328C40.5716 15.1262 39.6693 15.0591 38.7125 16.159L33.5165 22.1729C35.5846 20.9802 38.8582 16.4788 41.047 16.4712Z" fill="#F2F2F2"/>
<path fill-rule="evenodd" clip-rule="evenodd" d="M7.33178 5.27819C7.21697 5.51887 7.01531 5.72451 7.20961 6.0703C2.50228 5.55086 2.91001 6.48616 1.77513 11.12C1.56906 11.9654 -0.234091 11.708 0.0249738 10.4193C0.613757 7.50829 1.61911 5.63616 3.44728 5.27819C3.44728 5.27819 4.75291 5.24772 7.33178 5.27819Z" fill="#F2F2F2"/>
<path fill-rule="evenodd" clip-rule="evenodd" d="M26.8279 2.0456C23.2422 1.99685 23.6146 3.18807 23.0597 8.35813C22.9375 9.5006 19.8405 9.83877 20.1864 8.12354C20.968 4.25285 21.4656 1.64954 23.8899 1.16818C23.8899 1.16818 25.1249 1.14533 27.1753 1.15142C27.0422 1.44198 26.9262 1.74058 26.8279 2.0456Z" fill="#F2F2F2"/>
<path fill-rule="evenodd" clip-rule="evenodd" d="M26.5895 2.04579C23.2599 2.05341 23.6014 3.30555 23.0568 8.35832C22.9346 9.50079 19.8376 9.83896 20.1835 8.12373L20.1967 8.05975C20.5324 8.94326 22.3193 8.86862 22.5357 8.03538C22.6178 6.9377 22.7604 5.84576 22.9626 4.76487C23.3806 2.68405 23.9929 1.61774 26.6174 1.87061C26.6057 1.93002 26.5954 1.98943 26.5836 2.05036" fill="#F2F2F2"/>
<path fill-rule="evenodd" clip-rule="evenodd" d="M38.1635 29.218L31.1216 30.9789C30.7816 27.8486 31.5632 23.7357 34.6381 23.3076C37.323 22.9329 38.1075 26.7884 38.1635 29.218Z" fill="#F2F2F2"/>
<path fill-rule="evenodd" clip-rule="evenodd" d="M35.2034 24.159C36.1911 24.2016 37.0006 25.859 37.0124 27.8636C37.0242 29.8683 36.2323 31.4571 35.2461 31.4159C34.2598 31.3748 33.4488 29.716 33.437 27.7113C33.4252 25.7066 34.2172 24.1179 35.2034 24.159Z" fill="#F2F2F2"/>
<path fill-rule="evenodd" clip-rule="evenodd" d="M36.6856 29.1448C36.4531 30.3741 35.8628 31.2271 35.1666 31.1982C34.2584 31.1601 33.5121 29.6338 33.5018 27.7906C33.5001 27.5392 33.5129 27.2879 33.5401 27.0381C33.6372 29.2149 35.4536 29.7998 36.6856 29.1448Z" fill="#F2F2F2"/>
<path fill-rule="evenodd" clip-rule="evenodd" d="M52.5312 25.4904L48.6703 26.2764C48.6703 24.9054 48.6821 22.2457 50.5691 22.2031C52.1573 22.1681 52.5312 24.1834 52.5312 25.4904Z" fill="#F2F2F2"/>
<path fill-rule="evenodd" clip-rule="evenodd" d="M50.9298 22.863C51.4126 22.8828 51.8129 23.6475 51.8129 24.5706C51.8129 25.4937 51.4317 26.2279 50.9504 26.2081C50.469 26.1883 50.0672 25.4236 50.0672 24.5005C50.0672 23.5774 50.447 22.8493 50.9298 22.863Z" fill="#F2F2F2"/>
<path fill-rule="evenodd" clip-rule="evenodd" d="M6.82545 19.6505C9.50294 20.0938 13.1269 20.2232 18.3332 19.8729C7.17725 18.051 6.74008 14.9801 7.65416 5.1792C5.65083 9.25401 4.87952 13.6137 4.74999 18.0206C4.70583 19.4753 5.24309 19.3915 6.82692 19.649" fill="#F2F2F2"/>
<path fill-rule="evenodd" clip-rule="evenodd" d="M51.5892 25.1343C51.4803 25.7086 51.205 26.1062 50.8812 26.0925C50.4573 26.0742 50.1099 25.3628 50.1055 24.5037C50.1053 24.3866 50.1112 24.2697 50.1231 24.1533C50.1688 25.1678 51.0151 25.4405 51.5951 25.1343" fill="#F2F2F2"/>
</g>
<defs>
<clipPath id="clip0_309_1025">
<rect width="60" height="36" fill="white"/>
</clipPath>
</defs>
</svg>
