<svg width="48" height="30" viewBox="0 0 48 30" fill="none" xmlns="http://www.w3.org/2000/svg">
<g clip-path="url(#clip0_309_1019)">
<path d="M47.5909 6.41989C45.8371 3.83852 45.3633 4.60958 45.3633 4.60958C41.313 -0.0754332 39.7617 0.486098 39.7617 0.486098C31.5275 -0.561534 21.4017 0.419049 21.4017 0.419049C16.6062 1.32839 9.25086 8.80011 9.25086 8.80011C0.271361 14.5914 1.62011 14.6668 1.62011 14.6668C2.03931 15.0449 2.5119 15.3543 3.02151 15.5846L3.09441 18.9873L0.947759 17.3111L0.878905 16.4059C-0.405038 17.1812 -8.5925e-06 22.6959 0.340216 24.4392C0.68044 26.1824 2.77039 26.3249 2.77039 26.3249C6.88549 27.3055 20.1866 28.7722 21.9404 28.8392C23.3447 28.8351 24.7454 28.6948 26.1244 28.4202C26.1244 28.4202 26.4646 29.4007 27.947 29.8198C29.4294 30.2389 31.6611 29.9581 33.0099 28.6297C34.3586 27.3013 34.7677 24.0201 34.7677 24.0201L42.528 19.9008C42.6392 20.2223 42.8257 20.5103 43.0708 20.7389C44.3507 21.2292 46.1085 21.0197 46.4447 19.8296C46.7102 18.7253 46.9131 17.6059 47.0522 16.4772L47.3884 16.3431C47.6271 15.3618 47.7186 14.3485 47.6598 13.3385L47.9311 13.0619C48.0896 10.8419 47.9752 8.6101 47.5909 6.41989ZM18.8338 1.88154C24.3706 1.39125 34.63 2.22936 34.63 2.22936C33.8185 3.55103 33.1399 4.95519 32.6048 6.41989C32.2069 7.63971 31.6393 8.79305 30.9199 9.84355C21.1304 11.1719 10.3282 9.00544 10.3282 9.00544C12.5559 5.72426 18.8338 1.88154 18.8338 1.88154ZM3.44274 15.7857C4.33785 16.2048 5.20462 16.5484 5.20462 16.5484C7.8373 17.2482 14.9253 17.596 14.9253 17.596L18.8298 17.2943L16.8776 20.7808C14.9861 21.0658 12.7584 21.5058 12.7584 21.5058C10.2469 21.3799 7.74484 21.1001 5.26537 20.6677L3.58855 19.3686L3.44274 15.7857ZM15.3911 26.6769C15.0225 27.4438 13.6697 27.2678 13.6697 27.2678C13.6697 27.2678 5.26537 26.2579 3.84777 25.7676C2.43017 25.2773 2.39776 23.4963 2.43017 22.4151C2.43017 22.4151 5.73925 24.3009 16.0675 24.3721C15.9146 25.1612 15.6881 25.9331 15.3911 26.6769ZM18.2263 20.6006C18.04 20.6006 17.8213 20.6467 17.6269 20.6719L19.5548 17.2356C21.9445 17.0555 24.4718 16.8627 25.047 16.8166C26.1932 16.7454 29.0284 15.836 29.0284 15.836C30.2435 15.9785 29.0973 17.3739 29.0973 17.3739C27.2058 19.3435 20.1866 20.3911 18.2263 20.6006ZM34.148 24.4182C33.9576 26.7649 32.4752 28.5501 30.843 28.4076C29.8425 28.3196 29.0203 27.5318 28.5707 26.3961C28.6268 24.4186 29.0047 22.465 29.6886 20.6174C29.9333 20.3755 30.2237 20.1885 30.5415 20.0681C30.8593 19.9477 31.1977 19.8964 31.5356 19.9176C33.1678 20.0601 34.3384 22.0757 34.148 24.4182ZM43.3381 6.41989C43.3381 6.41989 38.6155 9.28621 33.6863 10.2626C33.6863 10.2626 34.3627 3.90557 36.8576 2.3006C38.2196 1.53333 39.8135 1.33393 41.313 1.74326C43.812 2.43888 44.3507 5.72426 44.3507 5.72426L43.3381 6.41989ZM46.716 16.5777C46.6512 18.3922 46.226 19.8463 45.7602 19.8296C45.2944 19.8128 44.9501 18.3294 45.0271 16.5191C45.104 14.7088 45.5172 13.2504 45.9829 13.2672C46.4487 13.284 46.7768 14.7674 46.716 16.5777Z" fill="#F2F2F2"/>
</g>
<defs>
<clipPath id="clip0_309_1019">
<rect width="48" height="30" fill="white"/>
</clipPath>
</defs>
</svg>
