<svg width="51" height="30" viewBox="0 0 51 30" fill="none" xmlns="http://www.w3.org/2000/svg">
<g clip-path="url(#clip0_309_1011)">
<path d="M48.4152 13.5717C48.3064 7.28409 46.6522 2.9913 46.6522 2.9913C43.7789 1.95833 33.7186 0.955307 33.7186 0.955307C27.0192 0.775661 16.5012 1.94336 15.5147 1.95833C14.5282 1.9733 14.2544 3.06241 14.2544 3.06241L11.9024 9.29388C4.43033 10.1135 5.45437 12.2543 5.45437 12.2543C2.20971 12.6061 1.43699 13.407 1.43699 13.407C0.971859 15.0837 0.923096 17.8383 0.923096 17.8383L1.62079 18.2126C1.62079 18.2126 0.698032 21.8317 1.33571 24.575C1.97339 27.3184 3.27126 28.2765 5.04926 28.3438C6.82726 28.4112 8.92785 28.6694 9.83561 26.0983C10.3908 24.6336 10.4656 23.0309 10.0494 21.521L23.0543 21.8953C23.0543 21.8953 23.3207 26.0122 24.8323 27.8573C26.344 29.7024 29.7837 29.4442 31.2429 28.3364C32.702 27.2285 33.0321 23.6656 33.0321 23.6656C36.6632 22.917 41.6033 23.9088 41.6033 23.9088C41.6033 23.9088 41.8434 26.4576 43.055 28.1081C44.2666 29.7585 46.9111 29.025 46.9111 29.025C46.9111 29.025 49.1617 28.7892 49.5968 24.9493C49.8789 22.766 49.6385 20.5472 48.8954 18.4745L50.0732 18.2575C50.1895 13.7364 48.4152 13.5717 48.4152 13.5717ZM5.42436 15.2035L1.8121 15.1586L5.04926 14.818L5.42436 13.1413V15.2035ZM7.4987 14.2828C6.86102 14.2828 6.32837 13.6129 6.31336 12.7558C6.29836 11.8987 6.80475 11.2026 7.43868 11.1914C8.07261 11.1802 8.60526 11.8613 8.62026 12.7184C8.63527 13.5754 8.12137 14.2716 7.48369 14.2828H7.4987ZM9.37423 15.9221L9.69307 11.6405L18.6018 11.3411L18.8757 15.8547L9.37423 15.9221ZM21.1788 13.9984C20.9814 13.9892 20.7877 13.9413 20.6088 13.8573C20.43 13.7733 20.2696 13.6548 20.1368 13.5087C20.004 13.3627 19.9014 13.1919 19.835 13.0061C19.7686 12.8204 19.7396 12.6234 19.7496 12.4265C19.7322 12.2297 19.7539 12.0315 19.8135 11.8432C19.8732 11.6548 19.9696 11.4801 20.0972 11.3292C20.2248 11.1782 20.3811 11.0539 20.5571 10.9634C20.7331 10.873 20.9252 10.8182 21.1225 10.8022C21.3203 10.8108 21.5144 10.8584 21.6937 10.9422C21.8729 11.026 22.0338 11.1444 22.167 11.2905C22.3001 11.4366 22.403 11.6076 22.4697 11.7935C22.5364 11.9795 22.5655 12.1768 22.5554 12.3741C22.5729 12.5711 22.5511 12.7696 22.4912 12.9582C22.4313 13.1467 22.3346 13.3216 22.2066 13.4726C22.0786 13.6236 21.9218 13.7479 21.7454 13.8381C21.569 13.9283 21.3764 13.9828 21.1788 13.9984ZM29.9938 26.6671C29.0973 26.6671 28.3358 24.8258 28.2946 22.5203C28.2533 20.2149 28.951 18.3323 29.8475 18.3173C30.744 18.3024 31.5055 20.1587 31.543 22.4642C31.5805 24.7696 30.879 26.6484 29.9825 26.6671H29.9938ZM24.9561 12.505L23.8683 15.0313L27.2743 15.4056L22.6792 15.4917L24.3409 11.9773C24.3409 11.9773 28.3358 11.4159 31.4942 11.7902C31.4942 11.7902 27.3155 12.0709 24.9561 12.505ZM32.8333 3.14849C32.7583 4.47712 32.5783 8.11495 32.5783 8.11495C32.5783 8.11495 19.8247 8.1898 12.994 8.89716L14.6557 3.49655C14.6557 3.49655 14.5957 2.8603 15.8711 2.64323C17.1464 2.42616 27.3793 1.80114 31.9143 2.01821C31.9143 2.01821 32.8934 1.80488 32.8071 3.13352L32.8333 3.14849ZM47.0311 9.67937L44.2478 9.54463C44.0865 8.2684 43.6514 4.95617 43.34 3.40298C44.9267 3.65 46.0296 3.84461 46.0296 3.84461C46.6372 4.75781 47.0161 9.6644 47.0161 9.6644L47.0311 9.67937ZM39.7503 9.34253C39.6378 8.13366 39.3377 5.03851 39.0001 2.80416C40.1892 2.95013 41.3745 3.1148 42.4248 3.27199C42.5748 4.42472 42.9762 7.59472 43.1037 9.49972L39.7503 9.34253ZM33.9099 9.05809L34.135 2.37376C35.1777 2.39248 36.4906 2.50475 37.856 2.65446C38.1773 4.84319 38.3427 7.05187 38.3511 9.26393L33.9099 9.05809ZM44.3416 14.3314L42.2785 20.3196L36.4193 20.3982L41.8096 19.4326L43.7789 13.8973C43.7789 13.8973 44.9042 12.9953 47.0236 13.3995C46.073 13.5148 45.1583 13.8326 44.3416 14.3314ZM47.2712 27.004C46.5209 27.004 45.8645 25.3797 45.827 23.3437C45.7895 21.3077 46.3822 19.6497 47.1436 19.6497C47.9051 19.6497 48.5503 21.2778 48.584 23.31C48.6178 25.3423 48.0326 26.989 47.2712 27.004Z" fill="#F2F2F2"/>
</g>
<defs>
<clipPath id="clip0_309_1011">
<rect width="49.1538" height="28.2493" fill="white" transform="translate(0.922974 0.935547)"/>
</clipPath>
</defs>
</svg>
