<svg width="43" height="42" viewBox="0 0 43 42" fill="none" xmlns="http://www.w3.org/2000/svg">
<g clip-path="url(#clip0_1449_2534)">
<path d="M34.0455 17.4545V9.9999C34.9546 9.36354 35.591 8.36354 35.591 7.09081V6.54536C35.591 4.63627 34.0455 3.09082 32.1364 3.09082H10.6819C8.7728 3.09082 7.22735 4.63627 7.22735 6.54536V7.09081C7.22735 8.72717 8.40917 10.1817 10.0455 10.4544L6.50008 21.6362C5.31826 21.6362 4.13645 22.3635 3.6819 23.4544L1.40918 28.7271C2.591 27.5453 4.13645 26.909 5.95463 26.909C9.50007 26.909 12.3183 29.7271 12.4092 33.1817H23.2273C23.3182 29.7272 26.2272 26.909 29.6819 26.909C32.4091 26.909 34.7728 28.6363 35.7727 31.0908H40.3181C41.5 31.0908 42.5001 30.0908 42.5001 28.9089V19.7272C42.5001 18.4545 41.5001 17.5454 40.3181 17.5454H34.0454V17.4545H34.0455ZM30.9546 17.4545H26.7728V21.6362H24.6819V26.4544C24.6819 27.2727 24.0454 27.909 23.2273 27.909H17.8637C17.0455 27.909 16.4092 27.2726 16.4092 26.4544V21.6362H11.1364L13.9546 18.8181L15.0455 19.909L15.7728 19.1818L12.6819 16.2727L11.9546 17L13.0455 18.0909L9.95462 21.1818L13.3182 10.5454H30.8637V17.4544L30.9546 17.4545Z" fill="white"/>
<path d="M5.95454 28C2.95454 28 0.5 30.4546 0.5 33.4545C0.5 36.4545 2.95454 38.9091 5.95454 38.9091C8.95453 38.9091 11.4091 36.4545 11.4091 33.4545C11.4091 30.3637 8.95453 28 5.95454 28ZM5.95454 35.6364C4.68181 35.6364 3.68181 34.6364 3.68181 33.3637C3.68181 32.0909 4.68181 31.091 5.95454 31.091C7.22726 31.091 8.22726 32.0909 8.22726 33.3637C8.22726 34.6364 7.22726 35.6364 5.95454 35.6364Z" fill="white"/>
<path d="M29.6818 28C26.6818 28 24.2273 30.4546 24.2273 33.4545C24.2273 36.4545 26.6818 38.9091 29.6818 38.9091C32.6818 38.9091 35.1364 36.4545 35.1364 33.4545C35.1364 30.3637 32.6818 28 29.6818 28ZM29.6818 35.6364C28.4091 35.6364 27.4091 34.6364 27.4091 33.3637C27.4091 32.0909 28.4091 31.091 29.6818 31.091C30.9546 31.091 31.9546 32.0909 31.9546 33.3637C31.9546 34.6364 30.9546 35.6364 29.6818 35.6364Z" fill="white"/>
</g>
<defs>
<clipPath id="clip0_1449_2534">
<rect width="42" height="42" fill="white" transform="translate(0.5)"/>
</clipPath>
</defs>
</svg>
